<mxfile host="app.diagrams.net" modified="2024-01-12T09:30:17.704Z" agent="Mozilla/5.0 (Windows NT 10.0; Win64; x64) AppleWebKit/537.36 (KHTML, like Gecko) Chrome/120.0.0.0 Safari/537.36" etag="YRzyluWo0Y7tiNQbNzy2" version="22.1.18" type="device">
  <diagram id="C5RBs43oDa-KdzZeNtuy" name="Page-1">
    <mxGraphModel dx="1034" dy="1633" grid="1" gridSize="10" guides="1" tooltips="1" connect="1" arrows="1" fold="1" page="1" pageScale="1" pageWidth="827" pageHeight="1169" math="0" shadow="0">
      <root>
        <mxCell id="WIyWlLk6GJQsqaUBKTNV-0" />
        <mxCell id="WIyWlLk6GJQsqaUBKTNV-1" parent="WIyWlLk6GJQsqaUBKTNV-0" />
        <mxCell id="lSgTRg_lMF9O8IN8LPWt-0" value="&lt;i&gt;docparts&lt;/i&gt;" style="swimlane;fontStyle=1;align=center;verticalAlign=top;childLayout=stackLayout;horizontal=1;startSize=26;horizontalStack=0;resizeParent=1;resizeParentMax=0;resizeLast=0;collapsible=1;marginBottom=0;whiteSpace=wrap;html=1;" vertex="1" parent="WIyWlLk6GJQsqaUBKTNV-1">
          <mxGeometry x="285" y="200" width="180" height="186" as="geometry" />
        </mxCell>
        <mxCell id="lSgTRg_lMF9O8IN8LPWt-24" value="+ name: string" style="text;strokeColor=none;fillColor=none;align=left;verticalAlign=top;spacingLeft=4;spacingRight=4;overflow=hidden;rotatable=0;points=[[0,0.5],[1,0.5]];portConstraint=eastwest;whiteSpace=wrap;html=1;" vertex="1" parent="lSgTRg_lMF9O8IN8LPWt-0">
          <mxGeometry y="26" width="180" height="26" as="geometry" />
        </mxCell>
        <mxCell id="lSgTRg_lMF9O8IN8LPWt-25" value="+ position: int" style="text;strokeColor=none;fillColor=none;align=left;verticalAlign=top;spacingLeft=4;spacingRight=4;overflow=hidden;rotatable=0;points=[[0,0.5],[1,0.5]];portConstraint=eastwest;whiteSpace=wrap;html=1;" vertex="1" parent="lSgTRg_lMF9O8IN8LPWt-0">
          <mxGeometry y="52" width="180" height="26" as="geometry" />
        </mxCell>
        <mxCell id="lSgTRg_lMF9O8IN8LPWt-2" value="" style="line;strokeWidth=1;fillColor=none;align=left;verticalAlign=middle;spacingTop=-1;spacingLeft=3;spacingRight=3;rotatable=0;labelPosition=right;points=[];portConstraint=eastwest;strokeColor=inherit;" vertex="1" parent="lSgTRg_lMF9O8IN8LPWt-0">
          <mxGeometry y="78" width="180" height="12" as="geometry" />
        </mxCell>
        <mxCell id="lSgTRg_lMF9O8IN8LPWt-31" value="+ display(type): type" style="text;strokeColor=none;fillColor=none;align=left;verticalAlign=top;spacingLeft=4;spacingRight=4;overflow=hidden;rotatable=0;points=[[0,0.5],[1,0.5]];portConstraint=eastwest;whiteSpace=wrap;html=1;" vertex="1" parent="lSgTRg_lMF9O8IN8LPWt-0">
          <mxGeometry y="90" width="180" height="32" as="geometry" />
        </mxCell>
        <mxCell id="lSgTRg_lMF9O8IN8LPWt-42" value="+ convert(iconverter): type" style="text;strokeColor=none;fillColor=none;align=left;verticalAlign=top;spacingLeft=4;spacingRight=4;overflow=hidden;rotatable=0;points=[[0,0.5],[1,0.5]];portConstraint=eastwest;whiteSpace=wrap;html=1;" vertex="1" parent="lSgTRg_lMF9O8IN8LPWt-0">
          <mxGeometry y="122" width="180" height="32" as="geometry" />
        </mxCell>
        <mxCell id="lSgTRg_lMF9O8IN8LPWt-32" value="+ save(type): type" style="text;strokeColor=none;fillColor=none;align=left;verticalAlign=top;spacingLeft=4;spacingRight=4;overflow=hidden;rotatable=0;points=[[0,0.5],[1,0.5]];portConstraint=eastwest;whiteSpace=wrap;html=1;" vertex="1" parent="lSgTRg_lMF9O8IN8LPWt-0">
          <mxGeometry y="154" width="180" height="32" as="geometry" />
        </mxCell>
        <mxCell id="lSgTRg_lMF9O8IN8LPWt-4" value="paragraph" style="swimlane;fontStyle=1;align=center;verticalAlign=top;childLayout=stackLayout;horizontal=1;startSize=20;horizontalStack=0;resizeParent=1;resizeParentMax=0;resizeLast=0;collapsible=1;marginBottom=0;whiteSpace=wrap;html=1;" vertex="1" parent="WIyWlLk6GJQsqaUBKTNV-1">
          <mxGeometry x="600" y="104" width="160" height="150" as="geometry" />
        </mxCell>
        <mxCell id="lSgTRg_lMF9O8IN8LPWt-33" value="+ content: string" style="text;strokeColor=none;fillColor=none;align=left;verticalAlign=top;spacingLeft=4;spacingRight=4;overflow=hidden;rotatable=0;points=[[0,0.5],[1,0.5]];portConstraint=eastwest;whiteSpace=wrap;html=1;" vertex="1" parent="lSgTRg_lMF9O8IN8LPWt-4">
          <mxGeometry y="20" width="160" height="26" as="geometry" />
        </mxCell>
        <mxCell id="lSgTRg_lMF9O8IN8LPWt-5" value="" style="line;strokeWidth=1;fillColor=none;align=left;verticalAlign=middle;spacingTop=-1;spacingLeft=3;spacingRight=3;rotatable=0;labelPosition=right;points=[];portConstraint=eastwest;strokeColor=inherit;" vertex="1" parent="lSgTRg_lMF9O8IN8LPWt-4">
          <mxGeometry y="46" width="160" height="14" as="geometry" />
        </mxCell>
        <mxCell id="lSgTRg_lMF9O8IN8LPWt-38" value="+ convert(self): type" style="text;strokeColor=none;fillColor=none;align=left;verticalAlign=top;spacingLeft=4;spacingRight=4;overflow=hidden;rotatable=0;points=[[0,0.5],[1,0.5]];portConstraint=eastwest;whiteSpace=wrap;html=1;" vertex="1" parent="lSgTRg_lMF9O8IN8LPWt-4">
          <mxGeometry y="60" width="160" height="26" as="geometry" />
        </mxCell>
        <mxCell id="lSgTRg_lMF9O8IN8LPWt-35" value="+ save(type): type" style="text;strokeColor=none;fillColor=none;align=left;verticalAlign=top;spacingLeft=4;spacingRight=4;overflow=hidden;rotatable=0;points=[[0,0.5],[1,0.5]];portConstraint=eastwest;whiteSpace=wrap;html=1;" vertex="1" parent="lSgTRg_lMF9O8IN8LPWt-4">
          <mxGeometry y="86" width="160" height="32" as="geometry" />
        </mxCell>
        <mxCell id="lSgTRg_lMF9O8IN8LPWt-34" value="+ display(type): type" style="text;strokeColor=none;fillColor=none;align=left;verticalAlign=top;spacingLeft=4;spacingRight=4;overflow=hidden;rotatable=0;points=[[0,0.5],[1,0.5]];portConstraint=eastwest;whiteSpace=wrap;html=1;" vertex="1" parent="lSgTRg_lMF9O8IN8LPWt-4">
          <mxGeometry y="118" width="160" height="32" as="geometry" />
        </mxCell>
        <mxCell id="lSgTRg_lMF9O8IN8LPWt-6" value="hyperlink" style="swimlane;fontStyle=1;align=center;verticalAlign=top;childLayout=stackLayout;horizontal=1;startSize=26;horizontalStack=0;resizeParent=1;resizeParentMax=0;resizeLast=0;collapsible=1;marginBottom=0;whiteSpace=wrap;html=1;" vertex="1" parent="WIyWlLk6GJQsqaUBKTNV-1">
          <mxGeometry x="600" y="310" width="160" height="186" as="geometry" />
        </mxCell>
        <mxCell id="lSgTRg_lMF9O8IN8LPWt-39" value="+ content: string" style="text;strokeColor=none;fillColor=none;align=left;verticalAlign=top;spacingLeft=4;spacingRight=4;overflow=hidden;rotatable=0;points=[[0,0.5],[1,0.5]];portConstraint=eastwest;whiteSpace=wrap;html=1;" vertex="1" parent="lSgTRg_lMF9O8IN8LPWt-6">
          <mxGeometry y="26" width="160" height="26" as="geometry" />
        </mxCell>
        <mxCell id="lSgTRg_lMF9O8IN8LPWt-41" value="+ url: string" style="text;strokeColor=none;fillColor=none;align=left;verticalAlign=top;spacingLeft=4;spacingRight=4;overflow=hidden;rotatable=0;points=[[0,0.5],[1,0.5]];portConstraint=eastwest;whiteSpace=wrap;html=1;" vertex="1" parent="lSgTRg_lMF9O8IN8LPWt-6">
          <mxGeometry y="52" width="160" height="26" as="geometry" />
        </mxCell>
        <mxCell id="lSgTRg_lMF9O8IN8LPWt-7" value="" style="line;strokeWidth=1;fillColor=none;align=left;verticalAlign=middle;spacingTop=-1;spacingLeft=3;spacingRight=3;rotatable=0;labelPosition=right;points=[];portConstraint=eastwest;strokeColor=inherit;" vertex="1" parent="lSgTRg_lMF9O8IN8LPWt-6">
          <mxGeometry y="78" width="160" height="18" as="geometry" />
        </mxCell>
        <mxCell id="lSgTRg_lMF9O8IN8LPWt-37" value="+ display(type): type" style="text;strokeColor=none;fillColor=none;align=left;verticalAlign=top;spacingLeft=4;spacingRight=4;overflow=hidden;rotatable=0;points=[[0,0.5],[1,0.5]];portConstraint=eastwest;whiteSpace=wrap;html=1;" vertex="1" parent="lSgTRg_lMF9O8IN8LPWt-6">
          <mxGeometry y="96" width="160" height="32" as="geometry" />
        </mxCell>
        <mxCell id="lSgTRg_lMF9O8IN8LPWt-36" value="+ save(type): type" style="text;strokeColor=none;fillColor=none;align=left;verticalAlign=top;spacingLeft=4;spacingRight=4;overflow=hidden;rotatable=0;points=[[0,0.5],[1,0.5]];portConstraint=eastwest;whiteSpace=wrap;html=1;" vertex="1" parent="lSgTRg_lMF9O8IN8LPWt-6">
          <mxGeometry y="128" width="160" height="32" as="geometry" />
        </mxCell>
        <mxCell id="lSgTRg_lMF9O8IN8LPWt-27" value="+ convert(self)" style="text;strokeColor=none;fillColor=none;align=left;verticalAlign=top;spacingLeft=4;spacingRight=4;overflow=hidden;rotatable=0;points=[[0,0.5],[1,0.5]];portConstraint=eastwest;whiteSpace=wrap;html=1;" vertex="1" parent="lSgTRg_lMF9O8IN8LPWt-6">
          <mxGeometry y="160" width="160" height="26" as="geometry" />
        </mxCell>
        <mxCell id="lSgTRg_lMF9O8IN8LPWt-8" value="header" style="swimlane;fontStyle=1;align=center;verticalAlign=top;childLayout=stackLayout;horizontal=1;startSize=26;horizontalStack=0;resizeParent=1;resizeParentMax=0;resizeLast=0;collapsible=1;marginBottom=0;whiteSpace=wrap;html=1;" vertex="1" parent="WIyWlLk6GJQsqaUBKTNV-1">
          <mxGeometry x="270" y="452" width="160" height="34" as="geometry" />
        </mxCell>
        <mxCell id="lSgTRg_lMF9O8IN8LPWt-9" value="" style="line;strokeWidth=1;fillColor=none;align=left;verticalAlign=middle;spacingTop=-1;spacingLeft=3;spacingRight=3;rotatable=0;labelPosition=right;points=[];portConstraint=eastwest;strokeColor=inherit;" vertex="1" parent="lSgTRg_lMF9O8IN8LPWt-8">
          <mxGeometry y="26" width="160" height="8" as="geometry" />
        </mxCell>
        <mxCell id="lSgTRg_lMF9O8IN8LPWt-10" value="footer" style="swimlane;fontStyle=1;align=center;verticalAlign=top;childLayout=stackLayout;horizontal=1;startSize=26;horizontalStack=0;resizeParent=1;resizeParentMax=0;resizeLast=0;collapsible=1;marginBottom=0;whiteSpace=wrap;html=1;" vertex="1" parent="WIyWlLk6GJQsqaUBKTNV-1">
          <mxGeometry x="70" y="452" width="160" height="34" as="geometry" />
        </mxCell>
        <mxCell id="lSgTRg_lMF9O8IN8LPWt-11" value="" style="line;strokeWidth=1;fillColor=none;align=left;verticalAlign=middle;spacingTop=-1;spacingLeft=3;spacingRight=3;rotatable=0;labelPosition=right;points=[];portConstraint=eastwest;strokeColor=inherit;" vertex="1" parent="lSgTRg_lMF9O8IN8LPWt-10">
          <mxGeometry y="26" width="160" height="8" as="geometry" />
        </mxCell>
        <mxCell id="lSgTRg_lMF9O8IN8LPWt-17" value="Document" style="swimlane;fontStyle=1;align=center;verticalAlign=top;childLayout=stackLayout;horizontal=1;startSize=26;horizontalStack=0;resizeParent=1;resizeParentMax=0;resizeLast=0;collapsible=1;marginBottom=0;whiteSpace=wrap;html=1;" vertex="1" parent="WIyWlLk6GJQsqaUBKTNV-1">
          <mxGeometry x="60" y="130" width="160" height="234" as="geometry" />
        </mxCell>
        <mxCell id="lSgTRg_lMF9O8IN8LPWt-18" value="+ title: string" style="text;strokeColor=none;fillColor=none;align=left;verticalAlign=top;spacingLeft=4;spacingRight=4;overflow=hidden;rotatable=0;points=[[0,0.5],[1,0.5]];portConstraint=eastwest;whiteSpace=wrap;html=1;" vertex="1" parent="lSgTRg_lMF9O8IN8LPWt-17">
          <mxGeometry y="26" width="160" height="26" as="geometry" />
        </mxCell>
        <mxCell id="lSgTRg_lMF9O8IN8LPWt-21" value="+ author: string" style="text;strokeColor=none;fillColor=none;align=left;verticalAlign=top;spacingLeft=4;spacingRight=4;overflow=hidden;rotatable=0;points=[[0,0.5],[1,0.5]];portConstraint=eastwest;whiteSpace=wrap;html=1;" vertex="1" parent="lSgTRg_lMF9O8IN8LPWt-17">
          <mxGeometry y="52" width="160" height="26" as="geometry" />
        </mxCell>
        <mxCell id="lSgTRg_lMF9O8IN8LPWt-22" value="+ date: date" style="text;strokeColor=none;fillColor=none;align=left;verticalAlign=top;spacingLeft=4;spacingRight=4;overflow=hidden;rotatable=0;points=[[0,0.5],[1,0.5]];portConstraint=eastwest;whiteSpace=wrap;html=1;" vertex="1" parent="lSgTRg_lMF9O8IN8LPWt-17">
          <mxGeometry y="78" width="160" height="26" as="geometry" />
        </mxCell>
        <mxCell id="lSgTRg_lMF9O8IN8LPWt-23" value="+ parts: List&amp;lt;docparts&amp;gt;" style="text;strokeColor=none;fillColor=none;align=left;verticalAlign=top;spacingLeft=4;spacingRight=4;overflow=hidden;rotatable=0;points=[[0,0.5],[1,0.5]];portConstraint=eastwest;whiteSpace=wrap;html=1;" vertex="1" parent="lSgTRg_lMF9O8IN8LPWt-17">
          <mxGeometry y="104" width="160" height="26" as="geometry" />
        </mxCell>
        <mxCell id="lSgTRg_lMF9O8IN8LPWt-19" value="" style="line;strokeWidth=1;fillColor=none;align=left;verticalAlign=middle;spacingTop=-1;spacingLeft=3;spacingRight=3;rotatable=0;labelPosition=right;points=[];portConstraint=eastwest;strokeColor=inherit;" vertex="1" parent="lSgTRg_lMF9O8IN8LPWt-17">
          <mxGeometry y="130" width="160" height="8" as="geometry" />
        </mxCell>
        <mxCell id="lSgTRg_lMF9O8IN8LPWt-20" value="+ htmlconverter(type): type" style="text;strokeColor=none;fillColor=none;align=left;verticalAlign=top;spacingLeft=4;spacingRight=4;overflow=hidden;rotatable=0;points=[[0,0.5],[1,0.5]];portConstraint=eastwest;whiteSpace=wrap;html=1;" vertex="1" parent="lSgTRg_lMF9O8IN8LPWt-17">
          <mxGeometry y="138" width="160" height="32" as="geometry" />
        </mxCell>
        <mxCell id="lSgTRg_lMF9O8IN8LPWt-29" value="+ display(type): type" style="text;strokeColor=none;fillColor=none;align=left;verticalAlign=top;spacingLeft=4;spacingRight=4;overflow=hidden;rotatable=0;points=[[0,0.5],[1,0.5]];portConstraint=eastwest;whiteSpace=wrap;html=1;" vertex="1" parent="lSgTRg_lMF9O8IN8LPWt-17">
          <mxGeometry y="170" width="160" height="32" as="geometry" />
        </mxCell>
        <mxCell id="lSgTRg_lMF9O8IN8LPWt-30" value="+ save(type): type" style="text;strokeColor=none;fillColor=none;align=left;verticalAlign=top;spacingLeft=4;spacingRight=4;overflow=hidden;rotatable=0;points=[[0,0.5],[1,0.5]];portConstraint=eastwest;whiteSpace=wrap;html=1;" vertex="1" parent="lSgTRg_lMF9O8IN8LPWt-17">
          <mxGeometry y="202" width="160" height="32" as="geometry" />
        </mxCell>
        <mxCell id="lSgTRg_lMF9O8IN8LPWt-26" value="" style="endArrow=diamondThin;endFill=1;endSize=24;html=1;rounded=0;entryX=1.004;entryY=0.026;entryDx=0;entryDy=0;entryPerimeter=0;exitX=-0.004;exitY=0.949;exitDx=0;exitDy=0;exitPerimeter=0;" edge="1" parent="WIyWlLk6GJQsqaUBKTNV-1" source="lSgTRg_lMF9O8IN8LPWt-24" target="lSgTRg_lMF9O8IN8LPWt-22">
          <mxGeometry width="160" relative="1" as="geometry">
            <mxPoint x="330" y="290" as="sourcePoint" />
            <mxPoint x="490" y="290" as="targetPoint" />
          </mxGeometry>
        </mxCell>
        <mxCell id="lSgTRg_lMF9O8IN8LPWt-43" value="«interface»&lt;br&gt;&lt;b&gt;iconverter&lt;/b&gt;" style="html=1;whiteSpace=wrap;" vertex="1" parent="WIyWlLk6GJQsqaUBKTNV-1">
          <mxGeometry x="285" y="30" width="190" height="130" as="geometry" />
        </mxCell>
        <mxCell id="lSgTRg_lMF9O8IN8LPWt-44" value="htmlconverter" style="swimlane;fontStyle=1;align=center;verticalAlign=top;childLayout=stackLayout;horizontal=1;startSize=26;horizontalStack=0;resizeParent=1;resizeParentMax=0;resizeLast=0;collapsible=1;marginBottom=0;whiteSpace=wrap;html=1;" vertex="1" parent="WIyWlLk6GJQsqaUBKTNV-1">
          <mxGeometry x="80" y="-164" width="160" height="164" as="geometry" />
        </mxCell>
        <mxCell id="lSgTRg_lMF9O8IN8LPWt-45" value="+ field: type" style="text;strokeColor=none;fillColor=none;align=left;verticalAlign=top;spacingLeft=4;spacingRight=4;overflow=hidden;rotatable=0;points=[[0,0.5],[1,0.5]];portConstraint=eastwest;whiteSpace=wrap;html=1;" vertex="1" parent="lSgTRg_lMF9O8IN8LPWt-44">
          <mxGeometry y="26" width="160" height="26" as="geometry" />
        </mxCell>
        <mxCell id="lSgTRg_lMF9O8IN8LPWt-46" value="" style="line;strokeWidth=1;fillColor=none;align=left;verticalAlign=middle;spacingTop=-1;spacingLeft=3;spacingRight=3;rotatable=0;labelPosition=right;points=[];portConstraint=eastwest;strokeColor=inherit;" vertex="1" parent="lSgTRg_lMF9O8IN8LPWt-44">
          <mxGeometry y="52" width="160" height="8" as="geometry" />
        </mxCell>
        <mxCell id="lSgTRg_lMF9O8IN8LPWt-47" value="+ convertpara(type): type" style="text;strokeColor=none;fillColor=none;align=left;verticalAlign=top;spacingLeft=4;spacingRight=4;overflow=hidden;rotatable=0;points=[[0,0.5],[1,0.5]];portConstraint=eastwest;whiteSpace=wrap;html=1;" vertex="1" parent="lSgTRg_lMF9O8IN8LPWt-44">
          <mxGeometry y="60" width="160" height="26" as="geometry" />
        </mxCell>
        <mxCell id="lSgTRg_lMF9O8IN8LPWt-53" value="+ converturl(type): type" style="text;strokeColor=none;fillColor=none;align=left;verticalAlign=top;spacingLeft=4;spacingRight=4;overflow=hidden;rotatable=0;points=[[0,0.5],[1,0.5]];portConstraint=eastwest;whiteSpace=wrap;html=1;" vertex="1" parent="lSgTRg_lMF9O8IN8LPWt-44">
          <mxGeometry y="86" width="160" height="26" as="geometry" />
        </mxCell>
        <mxCell id="lSgTRg_lMF9O8IN8LPWt-52" value="+ convertheader(type): type" style="text;strokeColor=none;fillColor=none;align=left;verticalAlign=top;spacingLeft=4;spacingRight=4;overflow=hidden;rotatable=0;points=[[0,0.5],[1,0.5]];portConstraint=eastwest;whiteSpace=wrap;html=1;" vertex="1" parent="lSgTRg_lMF9O8IN8LPWt-44">
          <mxGeometry y="112" width="160" height="26" as="geometry" />
        </mxCell>
        <mxCell id="lSgTRg_lMF9O8IN8LPWt-54" value="+ convertfooter(type): type" style="text;strokeColor=none;fillColor=none;align=left;verticalAlign=top;spacingLeft=4;spacingRight=4;overflow=hidden;rotatable=0;points=[[0,0.5],[1,0.5]];portConstraint=eastwest;whiteSpace=wrap;html=1;" vertex="1" parent="lSgTRg_lMF9O8IN8LPWt-44">
          <mxGeometry y="138" width="160" height="26" as="geometry" />
        </mxCell>
        <mxCell id="lSgTRg_lMF9O8IN8LPWt-55" value="pdfconverter" style="swimlane;fontStyle=1;align=center;verticalAlign=top;childLayout=stackLayout;horizontal=1;startSize=26;horizontalStack=0;resizeParent=1;resizeParentMax=0;resizeLast=0;collapsible=1;marginBottom=0;whiteSpace=wrap;html=1;" vertex="1" parent="WIyWlLk6GJQsqaUBKTNV-1">
          <mxGeometry x="450" y="-164" width="160" height="164" as="geometry" />
        </mxCell>
        <mxCell id="lSgTRg_lMF9O8IN8LPWt-56" value="+ field: type" style="text;strokeColor=none;fillColor=none;align=left;verticalAlign=top;spacingLeft=4;spacingRight=4;overflow=hidden;rotatable=0;points=[[0,0.5],[1,0.5]];portConstraint=eastwest;whiteSpace=wrap;html=1;" vertex="1" parent="lSgTRg_lMF9O8IN8LPWt-55">
          <mxGeometry y="26" width="160" height="26" as="geometry" />
        </mxCell>
        <mxCell id="lSgTRg_lMF9O8IN8LPWt-57" value="" style="line;strokeWidth=1;fillColor=none;align=left;verticalAlign=middle;spacingTop=-1;spacingLeft=3;spacingRight=3;rotatable=0;labelPosition=right;points=[];portConstraint=eastwest;strokeColor=inherit;" vertex="1" parent="lSgTRg_lMF9O8IN8LPWt-55">
          <mxGeometry y="52" width="160" height="8" as="geometry" />
        </mxCell>
        <mxCell id="lSgTRg_lMF9O8IN8LPWt-58" value="+ convertpara(type): type" style="text;strokeColor=none;fillColor=none;align=left;verticalAlign=top;spacingLeft=4;spacingRight=4;overflow=hidden;rotatable=0;points=[[0,0.5],[1,0.5]];portConstraint=eastwest;whiteSpace=wrap;html=1;" vertex="1" parent="lSgTRg_lMF9O8IN8LPWt-55">
          <mxGeometry y="60" width="160" height="26" as="geometry" />
        </mxCell>
        <mxCell id="lSgTRg_lMF9O8IN8LPWt-59" value="+ converturl(type): type" style="text;strokeColor=none;fillColor=none;align=left;verticalAlign=top;spacingLeft=4;spacingRight=4;overflow=hidden;rotatable=0;points=[[0,0.5],[1,0.5]];portConstraint=eastwest;whiteSpace=wrap;html=1;" vertex="1" parent="lSgTRg_lMF9O8IN8LPWt-55">
          <mxGeometry y="86" width="160" height="26" as="geometry" />
        </mxCell>
        <mxCell id="lSgTRg_lMF9O8IN8LPWt-60" value="+ convertheader(type): type" style="text;strokeColor=none;fillColor=none;align=left;verticalAlign=top;spacingLeft=4;spacingRight=4;overflow=hidden;rotatable=0;points=[[0,0.5],[1,0.5]];portConstraint=eastwest;whiteSpace=wrap;html=1;" vertex="1" parent="lSgTRg_lMF9O8IN8LPWt-55">
          <mxGeometry y="112" width="160" height="26" as="geometry" />
        </mxCell>
        <mxCell id="lSgTRg_lMF9O8IN8LPWt-61" value="+ convertfooter(type): type" style="text;strokeColor=none;fillColor=none;align=left;verticalAlign=top;spacingLeft=4;spacingRight=4;overflow=hidden;rotatable=0;points=[[0,0.5],[1,0.5]];portConstraint=eastwest;whiteSpace=wrap;html=1;" vertex="1" parent="lSgTRg_lMF9O8IN8LPWt-55">
          <mxGeometry y="138" width="160" height="26" as="geometry" />
        </mxCell>
        <mxCell id="lSgTRg_lMF9O8IN8LPWt-62" value="+ convertfooter(type): type" style="text;strokeColor=none;fillColor=none;align=left;verticalAlign=top;spacingLeft=4;spacingRight=4;overflow=hidden;rotatable=0;points=[[0,0.5],[1,0.5]];portConstraint=eastwest;whiteSpace=wrap;html=1;" vertex="1" parent="WIyWlLk6GJQsqaUBKTNV-1">
          <mxGeometry x="285" y="122" width="160" height="26" as="geometry" />
        </mxCell>
        <mxCell id="lSgTRg_lMF9O8IN8LPWt-63" value="+ convertpara(type): type" style="text;strokeColor=none;fillColor=none;align=left;verticalAlign=top;spacingLeft=4;spacingRight=4;overflow=hidden;rotatable=0;points=[[0,0.5],[1,0.5]];portConstraint=eastwest;whiteSpace=wrap;html=1;" vertex="1" parent="WIyWlLk6GJQsqaUBKTNV-1">
          <mxGeometry x="290" y="30" width="160" height="26" as="geometry" />
        </mxCell>
        <mxCell id="lSgTRg_lMF9O8IN8LPWt-64" value="+ convertheader(type): type" style="text;strokeColor=none;fillColor=none;align=left;verticalAlign=top;spacingLeft=4;spacingRight=4;overflow=hidden;rotatable=0;points=[[0,0.5],[1,0.5]];portConstraint=eastwest;whiteSpace=wrap;html=1;" vertex="1" parent="WIyWlLk6GJQsqaUBKTNV-1">
          <mxGeometry x="285" y="104" width="160" height="26" as="geometry" />
        </mxCell>
        <mxCell id="lSgTRg_lMF9O8IN8LPWt-65" value="+ converturl(type): type" style="text;strokeColor=none;fillColor=none;align=left;verticalAlign=top;spacingLeft=4;spacingRight=4;overflow=hidden;rotatable=0;points=[[0,0.5],[1,0.5]];portConstraint=eastwest;whiteSpace=wrap;html=1;" vertex="1" parent="WIyWlLk6GJQsqaUBKTNV-1">
          <mxGeometry x="290" y="50" width="160" height="26" as="geometry" />
        </mxCell>
        <mxCell id="lSgTRg_lMF9O8IN8LPWt-67" value="" style="endArrow=block;dashed=1;endFill=0;endSize=12;html=1;rounded=0;exitX=0.5;exitY=0;exitDx=0;exitDy=0;entryX=0.5;entryY=1;entryDx=0;entryDy=0;" edge="1" parent="WIyWlLk6GJQsqaUBKTNV-1" source="lSgTRg_lMF9O8IN8LPWt-0" target="lSgTRg_lMF9O8IN8LPWt-43">
          <mxGeometry width="160" relative="1" as="geometry">
            <mxPoint x="330" y="90" as="sourcePoint" />
            <mxPoint x="490" y="90" as="targetPoint" />
          </mxGeometry>
        </mxCell>
        <mxCell id="lSgTRg_lMF9O8IN8LPWt-68" value="" style="endArrow=block;dashed=1;endFill=0;endSize=12;html=1;rounded=0;exitX=1.004;exitY=1.038;exitDx=0;exitDy=0;exitPerimeter=0;entryX=-0.033;entryY=-0.038;entryDx=0;entryDy=0;entryPerimeter=0;" edge="1" parent="WIyWlLk6GJQsqaUBKTNV-1" source="lSgTRg_lMF9O8IN8LPWt-54" target="lSgTRg_lMF9O8IN8LPWt-63">
          <mxGeometry width="160" relative="1" as="geometry">
            <mxPoint x="330" y="50" as="sourcePoint" />
            <mxPoint x="490" y="50" as="targetPoint" />
          </mxGeometry>
        </mxCell>
        <mxCell id="lSgTRg_lMF9O8IN8LPWt-69" value="" style="endArrow=block;dashed=1;endFill=0;endSize=12;html=1;rounded=0;exitX=0.638;exitY=1.09;exitDx=0;exitDy=0;exitPerimeter=0;entryX=1;entryY=0;entryDx=0;entryDy=0;" edge="1" parent="WIyWlLk6GJQsqaUBKTNV-1" source="lSgTRg_lMF9O8IN8LPWt-61" target="lSgTRg_lMF9O8IN8LPWt-43">
          <mxGeometry width="160" relative="1" as="geometry">
            <mxPoint x="330" y="50" as="sourcePoint" />
            <mxPoint x="490" y="50" as="targetPoint" />
          </mxGeometry>
        </mxCell>
        <mxCell id="lSgTRg_lMF9O8IN8LPWt-70" value="" style="endArrow=none;html=1;edgeStyle=orthogonalEdgeStyle;rounded=0;entryX=0.008;entryY=0.885;entryDx=0;entryDy=0;entryPerimeter=0;exitX=1;exitY=0.5;exitDx=0;exitDy=0;" edge="1" parent="WIyWlLk6GJQsqaUBKTNV-1" source="lSgTRg_lMF9O8IN8LPWt-24" target="lSgTRg_lMF9O8IN8LPWt-38">
          <mxGeometry relative="1" as="geometry">
            <mxPoint x="330" y="310" as="sourcePoint" />
            <mxPoint x="490" y="310" as="targetPoint" />
          </mxGeometry>
        </mxCell>
        <mxCell id="lSgTRg_lMF9O8IN8LPWt-71" value="parent" style="edgeLabel;resizable=0;html=1;align=left;verticalAlign=bottom;" connectable="0" vertex="1" parent="lSgTRg_lMF9O8IN8LPWt-70">
          <mxGeometry x="-1" relative="1" as="geometry" />
        </mxCell>
        <mxCell id="lSgTRg_lMF9O8IN8LPWt-72" value="child" style="edgeLabel;resizable=0;html=1;align=right;verticalAlign=bottom;" connectable="0" vertex="1" parent="lSgTRg_lMF9O8IN8LPWt-70">
          <mxGeometry x="1" relative="1" as="geometry" />
        </mxCell>
        <mxCell id="lSgTRg_lMF9O8IN8LPWt-73" value="" style="endArrow=none;html=1;edgeStyle=orthogonalEdgeStyle;rounded=0;entryX=0;entryY=0.5;entryDx=0;entryDy=0;exitX=1.017;exitY=0.802;exitDx=0;exitDy=0;exitPerimeter=0;" edge="1" parent="WIyWlLk6GJQsqaUBKTNV-1" source="lSgTRg_lMF9O8IN8LPWt-31" target="lSgTRg_lMF9O8IN8LPWt-39">
          <mxGeometry relative="1" as="geometry">
            <mxPoint x="465" y="350" as="sourcePoint" />
            <mxPoint x="580" y="350" as="targetPoint" />
          </mxGeometry>
        </mxCell>
        <mxCell id="lSgTRg_lMF9O8IN8LPWt-74" value="parent" style="edgeLabel;resizable=0;html=1;align=left;verticalAlign=bottom;" connectable="0" vertex="1" parent="lSgTRg_lMF9O8IN8LPWt-73">
          <mxGeometry x="-1" relative="1" as="geometry" />
        </mxCell>
        <mxCell id="lSgTRg_lMF9O8IN8LPWt-75" value="child" style="edgeLabel;resizable=0;html=1;align=right;verticalAlign=bottom;" connectable="0" vertex="1" parent="lSgTRg_lMF9O8IN8LPWt-73">
          <mxGeometry x="1" relative="1" as="geometry" />
        </mxCell>
        <mxCell id="lSgTRg_lMF9O8IN8LPWt-76" value="" style="endArrow=none;html=1;edgeStyle=orthogonalEdgeStyle;rounded=0;" edge="1" parent="WIyWlLk6GJQsqaUBKTNV-1" target="lSgTRg_lMF9O8IN8LPWt-8">
          <mxGeometry relative="1" as="geometry">
            <mxPoint x="315" y="386" as="sourcePoint" />
            <mxPoint x="475" y="386" as="targetPoint" />
          </mxGeometry>
        </mxCell>
        <mxCell id="lSgTRg_lMF9O8IN8LPWt-78" value="child" style="edgeLabel;resizable=0;html=1;align=right;verticalAlign=bottom;" connectable="0" vertex="1" parent="lSgTRg_lMF9O8IN8LPWt-76">
          <mxGeometry x="1" relative="1" as="geometry" />
        </mxCell>
        <mxCell id="lSgTRg_lMF9O8IN8LPWt-79" value="" style="endArrow=none;html=1;edgeStyle=orthogonalEdgeStyle;rounded=0;exitX=0.002;exitY=0.885;exitDx=0;exitDy=0;exitPerimeter=0;" edge="1" parent="WIyWlLk6GJQsqaUBKTNV-1" source="lSgTRg_lMF9O8IN8LPWt-32">
          <mxGeometry relative="1" as="geometry">
            <mxPoint x="325" y="396" as="sourcePoint" />
            <mxPoint x="160" y="450" as="targetPoint" />
            <Array as="points">
              <mxPoint x="285" y="420" />
              <mxPoint x="161" y="420" />
            </Array>
          </mxGeometry>
        </mxCell>
        <mxCell id="lSgTRg_lMF9O8IN8LPWt-81" value="child" style="edgeLabel;resizable=0;html=1;align=right;verticalAlign=bottom;" connectable="0" vertex="1" parent="lSgTRg_lMF9O8IN8LPWt-79">
          <mxGeometry x="1" relative="1" as="geometry" />
        </mxCell>
      </root>
    </mxGraphModel>
  </diagram>
</mxfile>
